<?xml version="1.0"?>
<svg xmlns="http://www.w3.org/2000/svg" viewBox="0 0 240 180" width="240" height="180">
  <g transform="scale(10)">
    <path d="M19.5 8.5C19.16 6.03 17.03 4.17 14.46 4.17C13.33 4.17 12.28 4.54 11.43 5.16C10.54 3.34 8.67 2.08 6.5 2.08C3.46 2.08 1 4.54 1 7.58C1 7.72 1.01 7.85 1.02 7.98C0.41 8.57 0.04 9.39 0.04 10.29C0.04 12.09 1.5 13.54 3.29 13.54H19.71C21.5 13.54 22.96 12.09 22.96 10.29C22.96 9.39 22.59 8.57 21.98 7.98Z" fill="#7DA3B8" fill-opacity="0.5" stroke="#7DA3B8" stroke-width="0.085" stroke-linejoin="round" stroke-linecap="round"></path>
  </g>
</svg>