<?xml version="1.0"?>
<svg xmlns="http://www.w3.org/2000/svg" width="480" height="80" viewBox="0 0 480 80">
  <defs>
    
  </defs>
  <rect width="480" height="80" fill="#FAFAF8"></rect>
  
  <svg x="88" y="25" width="40" height="31" viewBox="0 0 24 18" fill="none">
    <path d="M19.5 8.5C19.16 6.03 17.03 4.17 14.46 4.17C13.33 4.17 12.28 4.54 11.43 5.16C10.54 3.34 8.67 2.08 6.5 2.08C3.46 2.08 1 4.54 1 7.58C1 7.72 1.01 7.85 1.02 7.98C0.41 8.57 0.04 9.39 0.04 10.29C0.04 12.09 1.5 13.54 3.29 13.54H19.71C21.5 13.54 22.96 12.09 22.96 10.29C22.96 9.39 22.59 8.57 21.98 7.98C21.98 7.98 20.23 8.5 19.5 8.5Z" stroke="#7DA3B8" stroke-width="0.85" stroke-linejoin="round" stroke-linecap="round" fill="#7DA3B8" fill-opacity="0.18"></path>
  </svg>
  
  <text x="142" y="46" font-family="Inter, -apple-system, BlinkMacSystemFont, sans-serif" font-size="16" font-weight="600" letter-spacing="0.96" fill="#1F2933">WHITE CLOUD</text>
  
  <line x1="264" y1="34" x2="264" y2="46" stroke="#E4E4DF" stroke-width="1"></line>
  
  <text x="276" y="46" font-family="Inter, -apple-system, BlinkMacSystemFont, sans-serif" font-size="11" font-weight="300" letter-spacing="1.98" fill="#8A929B">LAUNDRY SERVICE</text>
</svg>